<?xml version="1.0" encoding="UTF-8" standalone="no"?>
<!-- Created with Inkscape (http://www.inkscape.org/) -->

<svg
   width="537.17786"
   height="564.48718"
   viewBox="0 0 142.1283 149.35391"
   version="1.1"
   id="svg5"
   xmlns="http://www.w3.org/2000/svg"
   xmlns:svg="http://www.w3.org/2000/svg">
  <defs
     id="defs2" />
  <g
     id="layer2"
     transform="translate(-1072.9726,-413.80848)">
    <g
       id="g87552"
       transform="translate(985.15465,331.5779)"
       style="opacity:1;fill:#ffffff;fill-opacity:1">
      <path
         id="path87542"
         style="opacity:1;fill:#ffffff;fill-opacity:1;stroke:none;stroke-width:1.35986"
         d="m 130.46608,124.99981 v 35.52807 h 28.29026 c 0.13524,-0.004 0.27047,-0.008 0.40566,-0.0134 0.24928,0.007 0.49922,0.0107 0.74982,0.0119 0.065,-0.005 0.1299,-0.0112 0.19482,-0.017 0.34975,0.0112 0.70007,0.0186 1.05265,0.0186 h 1.13378 c 17.73035,0 32.12452,-14.19734 32.12414,-31.99415 0.002,-0.0236 -0.003,-2.02588 -7.1e-4,-2.04679 -0.006,-0.70793 -0.0103,-0.32976 5e-4,-1.48713 z" />
      <path
         id="path87544"
         style="fill:#ffffff;fill-opacity:1;stroke:none;stroke-width:1.24912"
         d="m 119.80774,124.99965 a 31.975367,31.975367 0 0 0 -31.975379,31.97538 31.975367,31.975367 0 0 0 31.975379,31.97539 31.975367,31.975367 0 0 0 3.55325,-0.22053 v -63.52986 a 31.975367,31.975367 0 0 0 -3.55325,-0.20038 z" />
      <path
         id="path87546"
         style="fill:#ffffff;fill-opacity:1;stroke:none;stroke-width:1.24912"
         d="m 134.01967,167.63372 a 31.975368,31.975368 0 0 1 31.97538,31.97538 31.975368,31.975368 0 0 1 -31.97538,31.97539 31.975368,31.975368 0 0 1 -3.55325,-0.22053 v -63.52985 a 31.975368,31.975368 0 0 1 3.55325,-0.20039 z" />
      <path
         id="path87548"
         style="fill:#ffffff;fill-opacity:1;stroke-width:1.66549"
         d="m 119.83041,82.233221 c -17.7248,8e-6 -31.993912,14.269119 -31.993912,31.993909 0,0.0249 0.0011,0.0496 0.0011,0.0744 0.06805,-0.006 -0.0682,0.005 0,0 -0.001,1.2191 0.004,2.38796 -0.0052,3.59256 v 21.31705 c 5.146852,-15.44055 21.444872,-19.85905 30.063282,-21.00441 2.99688,-0.39824 7.92273,-0.31264 10.95437,-0.31264 h 65.56706 c 0.0717,-0.006 0.14333,-0.0122 0.21497,-0.0186 0.34975,0.0112 0.70007,0.0186 1.05265,0.0186 h 2.26756 c 17.7248,0 31.99391,-14.2691 31.99391,-31.99391 -0.001,-1.221198 -8.8e-4,-1.382801 -4e-4,-3.669623 l -104.92966,0.0027 h -2.91817 z" />
      <path
         id="path87550"
         style="fill:#ffffff;fill-opacity:1;stroke-width:1.66549"
         d="m 105.59668,196.05628 c 9.84131,0 17.7641,7.92279 17.7641,17.76411 0,9.8413 -7.92279,17.7641 -17.7641,17.7641 -9.841309,0 -17.764099,-7.9228 -17.764099,-17.7641 0,-9.84132 7.92279,-17.76411 17.764099,-17.76411 z" />
    </g>
  </g>
</svg>
