<?xml version="1.0" encoding="UTF-8" standalone="no"?>
<!-- Created with Inkscape (http://www.inkscape.org/) -->

<svg
   width="537.17761"
   height="564.4873"
   viewBox="0 0 142.12823 149.35394"
   version="1.1"
   id="svg5"
   inkscape:version="1.2-alpha (0bd5040, 2022-02-05)"
   sodipodi:docname="Fast_Starter_logo_project.svg"
   xmlns:inkscape="http://www.inkscape.org/namespaces/inkscape"
   xmlns:sodipodi="http://sodipodi.sourceforge.net/DTD/sodipodi-0.dtd"
   xmlns="http://www.w3.org/2000/svg"
   xmlns:svg="http://www.w3.org/2000/svg">
  <sodipodi:namedview
     id="namedview7"
     pagecolor="#505050"
     bordercolor="#eeeeee"
     borderopacity="1"
     inkscape:pageshadow="0"
     inkscape:pageopacity="0"
     inkscape:pagecheckerboard="0"
     inkscape:document-units="px"
     showgrid="false"
     inkscape:object-paths="true"
     inkscape:snap-intersection-paths="true"
     inkscape:snap-smooth-nodes="true"
     inkscape:snap-midpoints="true"
     inkscape:snap-object-midpoints="true"
     units="px"
     inkscape:snap-page="true"
     inkscape:zoom="0.21851852"
     inkscape:cx="3825.7628"
     inkscape:cy="569.74577"
     inkscape:window-width="1328"
     inkscape:window-height="705"
     inkscape:window-x="16"
     inkscape:window-y="16"
     inkscape:window-maximized="1"
     inkscape:current-layer="layer2"
     inkscape:blackoutopacity="0.0">
    <inkscape:grid
       type="xygrid"
       id="grid1864"
       spacingx="5.6444445"
       spacingy="5.6444445"
       units="pt"
       originx="2.5536275e-06"
       originy="0.11102401" />
  </sodipodi:namedview>
  <defs
     id="defs2" />
  <g
     inkscape:groupmode="layer"
     id="layer2"
     inkscape:label="Layer 2"
     transform="translate(-754.9697,-348.28474)">
    <g
       id="g32369"
       transform="translate(667.15183,266.05416)"
       style="fill:#cccccc;fill-opacity:1"
       inkscape:export-filename="/home/amr/DESIGNS/Fast_Starter/png/logo_color_withe.png"
       inkscape:export-xdpi="128"
       inkscape:export-ydpi="128">
      <path
         id="path32359"
         style="opacity:1;fill:#0c6efd;fill-opacity:1;stroke:none;stroke-width:1.35986"
         d="m 130.46608,124.99981 v 35.52807 h 28.29026 c 0.13524,-0.004 0.27047,-0.008 0.40566,-0.0134 0.24928,0.007 0.49922,0.0107 0.74982,0.0119 0.065,-0.005 0.1299,-0.0112 0.19482,-0.017 0.34975,0.0112 0.70007,0.0186 1.05265,0.0186 h 1.13378 c 17.73035,0 32.12452,-14.19734 32.12414,-31.99415 0.002,-0.0236 -0.003,-2.02588 -7.1e-4,-2.04679 -0.006,-0.70793 -0.0103,-0.32976 5e-4,-1.48713 z"
         sodipodi:nodetypes="ccccccsscccc" />
      <path
         id="path32361"
         style="fill:#ffffff;fill-opacity:1;stroke:none;stroke-width:1.24912"
         d="m 119.80774,124.99965 a 31.975367,31.975367 0 0 0 -31.975379,31.97538 31.975367,31.975367 0 0 0 31.975379,31.97539 31.975367,31.975367 0 0 0 3.55325,-0.22053 v -63.52986 a 31.975367,31.975367 0 0 0 -3.55325,-0.20038 z" />
      <path
         id="path32363"
         style="fill:#ffffff;fill-opacity:1;stroke:none;stroke-width:1.24912"
         d="m 134.01967,167.63372 a 31.975368,31.975368 0 0 1 31.97538,31.97538 31.975368,31.975368 0 0 1 -31.97538,31.97539 31.975368,31.975368 0 0 1 -3.55325,-0.22053 v -63.52985 a 31.975368,31.975368 0 0 1 3.55325,-0.20039 z" />
      <path
         id="path32365"
         style="fill:#ffffff;fill-opacity:1;stroke-width:1.66549"
         d="m 119.83041,82.233221 c -17.7248,8e-6 -31.993912,14.269119 -31.993912,31.993909 0,0.0249 0.0011,0.0496 0.0011,0.0744 0.06805,-0.006 -0.0682,0.005 0,0 -0.001,1.2191 0.004,2.38796 -0.0052,3.59256 v 21.31705 c 5.146852,-15.44055 21.444872,-19.85905 30.063282,-21.00441 2.99688,-0.39824 7.92273,-0.31264 10.95437,-0.31264 h 65.56706 c 0.0717,-0.006 0.14333,-0.0122 0.21497,-0.0186 0.34975,0.0112 0.70007,0.0186 1.05265,0.0186 h 2.26756 c 17.7248,0 31.99391,-14.2691 31.99391,-31.99391 -0.001,-1.221198 -8.8e-4,-1.382801 -4e-4,-3.669623 l -104.92966,0.0027 h -2.91817 z"
         sodipodi:nodetypes="sscccccsccsscccss" />
      <path
         id="path32367"
         style="fill:#0c6efd;fill-opacity:1;stroke-width:1.66549"
         d="m 105.59668,196.05628 c 9.84131,0 17.7641,7.92279 17.7641,17.76411 0,9.8413 -7.92279,17.7641 -17.7641,17.7641 -9.841309,0 -17.764099,-7.9228 -17.764099,-17.7641 0,-9.84132 7.92279,-17.76411 17.764099,-17.76411 z" />
    </g>
  </g>
</svg>
